{"accessors":[{"bufferView":0,"byteOffset":0,"componentType":5126,"count":2536,"max":[0.009991085052490235,0.027,0.015199999809265137],"min":[-0.009997032165527345,-0.027,-0.030399999618530274],"type":"VEC3"},{"bufferView":1,"byteOffset":0,"componentType":5123,"count":8004,"type":"SCALAR"}],"asset":{"generator":"Open CASCADE Technology 7.6 [dev.opencascade.org]","version":"2.0","extras":{"Comments":"STLB ATF 11.7.0.108 COLOR=   ÿ                                                  l"}},"bufferViews":[{"buffer":0,"byteLength":30432,"byteOffset":0,"byteStride":12,"target":34962},{"buffer":0,"byteLength":16008,"byteOffset":30432,"target":34963}],"buffers":[{"byteLength":46440,"uri":"MG996R Servo.bin"}],"meshes":[{"name":"MG996R Servo.stl","primitives":[{"attributes":{"POSITION":0},"indices":1,"mode":4}]}],"nodes":[{"mesh":0,"name":"MG996R Servo.stl"}],"scene":0,"scenes":[{"nodes":[0]}]}